<svg width="18" height="23" viewBox="0 0 18 23" fill="none" xmlns="http://www.w3.org/2000/svg">
<path d="M17.4702 12.6309C17.4715 11.684 17.4727 10.7372 17.4727 9.79078C17.4727 9.15584 17.4732 8.52135 17.4732 7.88685C17.474 6.36781 17.4744 4.79715 17.471 3.25141C17.4676 1.72169 16.5098 0.449142 15.0879 0.0847316C14.8712 0.0291133 14.6485 0.00108178 14.4255 0.00108178C14.425 0.00108178 14.4246 0.00108178 14.4246 0.00108178C13.6525 0.00108178 12.8803 0.00108178 12.1082 0.000636832C10.6103 -0.00025306 9.06135 -0.00114295 7.53749 0.00286156C6.76026 0.00508629 6.01448 0.321443 5.43825 0.893643C4.85438 1.47341 4.52249 2.23782 4.50422 3.04584C4.48552 3.85654 4.48892 4.67657 4.49232 5.46902C4.4936 5.82409 4.4953 6.19161 4.49487 6.55157C4.49445 6.85147 4.59006 7.12911 4.77066 7.35425C5.09405 7.75648 5.62735 7.90376 6.09777 7.72044C6.57031 7.53624 6.86437 7.07572 6.86565 6.51909C6.86692 5.84633 6.8665 5.17313 6.8665 4.49993C6.8665 4.12172 6.8665 3.74307 6.8665 3.36487C6.86692 2.76953 7.13252 2.49233 7.70364 2.49189C9.89169 2.49144 12.0797 2.49144 14.2678 2.49189C14.836 2.49189 15.1007 2.77131 15.1007 3.37066C15.1011 8.7941 15.1011 14.2175 15.1007 19.641C15.1007 20.2368 14.8343 20.514 14.2627 20.514C12.0746 20.514 9.8866 20.514 7.69854 20.514C7.13931 20.514 6.86735 20.2256 6.86692 19.6334C6.86692 19.2588 6.86692 18.8846 6.86692 18.5099C6.86692 17.847 6.86735 17.184 6.86607 16.521C6.86522 16.1495 6.73562 15.8118 6.50019 15.5706C6.2771 15.3419 5.97836 15.2191 5.65838 15.2253C4.98568 15.2382 4.49657 15.7815 4.4953 16.5179C4.49487 16.7893 4.4936 17.0612 4.49275 17.3331C4.48977 18.1509 4.48637 18.9967 4.49955 19.8319C4.51697 20.9384 5.00991 21.8608 5.92482 22.4993C6.17681 22.6751 6.43093 22.7676 6.6553 22.849C6.74326 22.8811 6.82613 22.9109 6.89964 22.9434L7.02883 22.9999H15.0297L15.1228 22.9113C16.4911 22.583 17.4902 21.2205 17.48 19.6445C17.4642 17.3077 17.4672 14.9299 17.4702 12.6309Z" fill="#F1F1F1"/>
<path d="M3.76949 12.7439C5.43103 12.7439 7.09257 12.7439 8.75454 12.7439L8.80043 12.7443C8.87395 12.7448 8.96574 12.7457 9.06687 12.735C9.66477 12.6705 10.1186 12.1455 10.1233 11.5132C10.1258 11.1737 10.0086 10.8618 9.79396 10.6353C9.63248 10.4649 9.34012 10.2611 8.86545 10.2611C7.28125 10.2602 5.69705 10.2607 4.11285 10.2607H3.75801C3.80518 10.2015 3.85235 10.1419 3.8991 10.0822C4.32702 9.53584 4.2654 8.76164 3.75929 8.31981C3.24893 7.87442 2.53459 7.93893 2.09817 8.46975C1.54489 9.14296 0.965689 9.85798 0.276001 10.7203C-0.0894537 11.1768 -0.0924283 11.8113 0.268776 12.2634C0.79826 12.9259 1.38086 13.6458 2.10242 14.529C2.32934 14.8067 2.64508 14.958 2.97951 14.958C3.06493 14.958 3.15162 14.9482 3.2383 14.9281C3.65645 14.8311 3.98579 14.5286 4.11922 14.1183C4.25435 13.7023 4.16681 13.2431 3.88465 12.8894C3.8464 12.84 3.80773 12.792 3.76949 12.7439Z" fill="#F1F1F1"/>
</svg>
