<svg width="21" height="21" viewBox="0 0 21 21" fill="none" xmlns="http://www.w3.org/2000/svg">
<path d="M20.4779 17.967L16.238 13.3813L15.56 14.0601L14.7921 13.292C14.851 13.2157 14.9098 13.1395 14.9656 13.0617C16.1681 11.3814 16.6969 9.31129 16.4477 7.26005C16.1984 5.20881 15.1893 3.32562 13.6195 1.98239C12.0497 0.639161 10.0335 -0.0664422 7.96888 0.00493083C5.90431 0.0763039 3.94155 0.919464 2.46823 2.36789C0.994908 3.81632 0.118146 5.76471 0.0110977 7.82827C-0.0959507 9.89183 0.574497 11.9205 1.89003 13.5137C3.20557 15.1069 5.07055 16.1487 7.11664 16.4334C9.16274 16.7182 11.2412 16.2251 12.9415 15.0516C13.0586 14.9708 13.1735 14.8867 13.2865 14.7992L14.0532 15.5661L13.2919 16.3275L17.9697 20.4796C18.1346 20.6447 18.3304 20.7755 18.5459 20.8648C18.7613 20.9541 18.9923 21.0001 19.2255 21C19.4588 20.9999 19.6897 20.9539 19.9052 20.8645C20.1206 20.7751 20.3163 20.6442 20.4811 20.4791C20.6459 20.314 20.7766 20.118 20.8656 19.9024C20.9546 19.6867 21.0003 19.4557 21 19.2224C20.9997 18.9891 20.9534 18.7581 20.8638 18.5427C20.7742 18.3273 20.6431 18.1317 20.4779 17.967L20.4779 17.967ZM12.2957 12.2933C11.359 13.2323 10.1257 13.8173 8.80597 13.9485C7.48628 14.0798 6.16194 13.7492 5.05866 13.0131C3.95539 12.277 3.14148 11.1809 2.75566 9.91177C2.36985 8.64262 2.43601 7.27891 2.94287 6.05308C3.44974 4.82726 4.36592 3.8152 5.53527 3.18941C6.70462 2.56362 8.05475 2.36284 9.35552 2.62129C10.6563 2.87974 11.8272 3.58142 12.6687 4.60673C13.5101 5.63205 13.9701 6.91752 13.9701 8.24405C13.97 9.76231 13.3679 11.2186 12.2957 12.2933Z" fill="#F1F1F1"/>
</svg>
