<svg width="17" height="21" viewBox="0 0 17 21" fill="none" xmlns="http://www.w3.org/2000/svg">
<path d="M6.21399 14.2273C7.74364 14.1055 9.28032 14.1055 10.81 14.2273C11.6429 14.2753 12.472 14.3783 13.2918 14.5356C15.0659 14.8906 16.224 15.4698 16.7204 16.4039C17.0932 17.133 17.0932 18.0009 16.7204 18.73C16.224 19.6641 15.1118 20.2807 13.2734 20.5983C12.4542 20.7616 11.625 20.8677 10.7916 20.9159C10.0195 21 9.24734 21 8.46602 21H7.05965C6.76551 20.9626 6.48056 20.9439 6.2048 20.9439C5.37134 20.9016 4.54194 20.7986 3.72297 20.6357C1.94892 20.2994 0.790737 19.7015 0.294371 18.7673C0.102756 18.4055 0.00173621 18.0012 0.000110731 17.5903C-0.00376583 17.1769 0.0941986 16.769 0.285179 16.4039C0.772353 15.4698 1.93054 14.8625 3.72297 14.5356C4.54555 14.376 5.37778 14.273 6.21399 14.2273ZM8.50279 0C11.5843 0 14.0823 2.53871 14.0823 5.67037C14.0823 8.80203 11.5843 11.3407 8.50279 11.3407C5.42131 11.3407 2.92327 8.80203 2.92327 5.67037C2.92327 2.53871 5.42131 0 8.50279 0Z" fill="#F1F1F1"/>
</svg>
